<?xml version="1.0" encoding="UTF-8"?>
<svg xmlns="http://www.w3.org/2000/svg" xmlns:xlink="http://www.w3.org/1999/xlink" width="30pt" height="30.000001pt" viewBox="0 0 30 30.000001" version="1.2">
<defs>
<clipPath id="clip1">
  <path d="M 3 17 L 27 17 L 27 25.652344 L 3 25.652344 Z M 3 17 "/>
</clipPath>
<clipPath id="clip2">
  <path d="M 5 22 L 24 22 L 24 25.652344 L 5 25.652344 Z M 5 22 "/>
</clipPath>
<clipPath id="clip3">
  <path d="M 2.546875 14 L 27 14 L 27 18 L 2.546875 18 Z M 2.546875 14 "/>
</clipPath>
<clipPath id="clip4">
  <path d="M 10 1.9375 L 19 1.9375 L 19 14 L 10 14 Z M 10 1.9375 "/>
</clipPath>
</defs>
<g id="surface1">
<g clip-path="url(#clip1)" clip-rule="nonzero">
<path style=" stroke:none;fill-rule:nonzero;fill:rgb(26.269531%,74.119568%,86.268616%);fill-opacity:1;" d="M 3.085938 17.027344 C 3.085938 22.457031 9.507812 25.652344 14.480469 25.652344 C 20.902344 25.652344 26.457031 21.378906 26.457031 17.027344 L 3.085938 17.027344 "/>
</g>
<g clip-path="url(#clip2)" clip-rule="nonzero">
<path style=" stroke:none;fill-rule:nonzero;fill:rgb(67.83905%,29.40979%,67.449951%);fill-opacity:1;" d="M 5.53125 22.285156 C 7.855469 24.457031 11.4375 25.652344 14.480469 25.652344 C 18.128906 25.652344 21.492188 24.273438 23.722656 22.285156 L 5.53125 22.285156 "/>
</g>
<path style=" stroke:none;fill-rule:nonzero;fill:rgb(96.078491%,74.508667%,8.239746%);fill-opacity:1;" d="M 7.984375 8.542969 C 7.117188 8.503906 6.582031 9.1875 6.582031 9.945312 C 6.582031 9.1875 6.050781 8.503906 5.214844 8.578125 C 5.976562 8.429688 6.507812 8.050781 6.582031 7.214844 C 6.734375 7.667969 6.734375 8.125 7.238281 8.332031 C 7.515625 8.425781 7.984375 8.542969 7.984375 8.542969 "/>
<path style=" stroke:none;fill-rule:nonzero;fill:rgb(96.078491%,74.508667%,8.239746%);fill-opacity:1;" d="M 11.210938 4.957031 C 10.070312 4.910156 9.371094 5.804688 9.371094 6.800781 C 9.371094 5.804688 8.675781 4.910156 7.578125 5.007812 C 8.574219 4.808594 9.273438 4.3125 9.371094 3.214844 C 9.574219 3.8125 9.574219 4.410156 10.234375 4.683594 C 10.597656 4.804688 11.210938 4.957031 11.210938 4.957031 "/>
<g clip-path="url(#clip3)" clip-rule="nonzero">
<path style=" stroke:none;fill-rule:nonzero;fill:rgb(67.83905%,29.40979%,67.449951%);fill-opacity:1;" d="M 26.980469 17.183594 L 2.566406 17.183594 L 2.566406 14.914062 L 26.980469 14.914062 L 26.980469 17.183594 "/>
</g>
<path style=" stroke:none;fill-rule:nonzero;fill:rgb(67.83905%,29.40979%,67.449951%);fill-opacity:1;" d="M 14.96875 15.464844 L 14.480469 15.464844 L 14.480469 11.640625 L 14.96875 11.640625 L 14.96875 15.464844 "/>
<g clip-path="url(#clip4)" clip-rule="nonzero">
<path style=" stroke:none;fill-rule:nonzero;fill:rgb(96.078491%,74.508667%,8.239746%);fill-opacity:1;" d="M 14.753906 13.769531 C 17.863281 13.660156 22.394531 10.484375 14.59375 1.941406 C 14.59375 1.941406 13.960938 4.679688 12.089844 6.4375 C 9.109375 9.234375 11.140625 13.898438 14.753906 13.769531 "/>
</g>
<path style=" stroke:none;fill-rule:nonzero;fill:rgb(26.269531%,74.119568%,86.268616%);fill-opacity:1;" d="M 14.757812 13.792969 C 17.324219 13.703125 21.058594 11.085938 14.628906 4.039062 C 14.628906 4.039062 14.105469 6.296875 12.5625 7.75 C 10.109375 10.054688 11.78125 13.902344 14.757812 13.792969 "/>
<path style=" stroke:none;fill-rule:nonzero;fill:rgb(93.328857%,22.749329%,58.428955%);fill-opacity:1;" d="M 14.808594 13.769531 C 16.839844 13.695312 19.796875 11.625 14.707031 6.046875 C 14.707031 6.046875 14.292969 7.835938 13.070312 8.984375 C 11.128906 10.808594 12.453125 13.851562 14.808594 13.769531 "/>
<path style=" stroke:none;fill-rule:nonzero;fill:rgb(100%,100%,100%);fill-opacity:1;" d="M 23.941406 20.78125 C 23.359375 20.78125 23.085938 20.242188 22.84375 19.765625 C 22.589844 19.269531 22.414062 18.964844 22.09375 18.964844 C 21.777344 18.964844 21.601562 19.269531 21.347656 19.765625 C 21.105469 20.242188 20.832031 20.78125 20.25 20.78125 C 19.667969 20.78125 19.390625 20.242188 19.152344 19.765625 C 18.898438 19.269531 18.722656 18.964844 18.402344 18.964844 C 18.085938 18.964844 17.910156 19.269531 17.65625 19.765625 C 17.414062 20.242188 17.140625 20.78125 16.558594 20.78125 C 15.976562 20.78125 15.703125 20.242188 15.460938 19.765625 C 15.207031 19.269531 15.03125 18.964844 14.710938 18.964844 C 14.394531 18.964844 14.21875 19.269531 13.964844 19.765625 C 13.722656 20.242188 13.449219 20.78125 12.867188 20.78125 C 12.285156 20.78125 12.011719 20.242188 11.769531 19.765625 C 11.515625 19.269531 11.339844 18.964844 11.019531 18.964844 C 10.703125 18.964844 10.527344 19.269531 10.273438 19.765625 C 10.03125 20.242188 9.757812 20.78125 9.175781 20.78125 C 8.59375 20.78125 8.320312 20.242188 8.078125 19.765625 C 7.824219 19.269531 7.648438 18.964844 7.332031 18.964844 C 7.011719 18.964844 6.835938 19.269531 6.582031 19.765625 C 6.339844 20.242188 6.066406 20.78125 5.484375 20.78125 C 4.9375 20.78125 4.601562 20.25 4.277344 19.738281 C 3.925781 19.183594 3.691406 18.855469 3.378906 18.957031 L 3.257812 18.585938 C 3.882812 18.378906 4.269531 18.988281 4.609375 19.527344 C 4.875 19.953125 5.152344 20.390625 5.484375 20.390625 C 5.804688 20.390625 5.980469 20.085938 6.234375 19.589844 C 6.472656 19.113281 6.75 18.574219 7.332031 18.574219 C 7.910156 18.574219 8.1875 19.113281 8.429688 19.589844 C 8.679688 20.085938 8.859375 20.390625 9.175781 20.390625 C 9.492188 20.390625 9.671875 20.085938 9.921875 19.589844 C 10.164062 19.113281 10.441406 18.574219 11.019531 18.574219 C 11.601562 18.574219 11.875 19.113281 12.117188 19.589844 C 12.371094 20.085938 12.546875 20.390625 12.867188 20.390625 C 13.183594 20.390625 13.363281 20.085938 13.613281 19.589844 C 13.855469 19.113281 14.128906 18.574219 14.710938 18.574219 C 15.292969 18.574219 15.566406 19.113281 15.808594 19.589844 C 16.0625 20.085938 16.238281 20.390625 16.558594 20.390625 C 16.875 20.390625 17.050781 20.085938 17.304688 19.589844 C 17.546875 19.113281 17.820312 18.574219 18.402344 18.574219 C 18.984375 18.574219 19.257812 19.113281 19.5 19.589844 C 19.753906 20.085938 19.929688 20.390625 20.25 20.390625 C 20.566406 20.390625 20.742188 20.085938 20.996094 19.589844 C 21.238281 19.113281 21.511719 18.574219 22.09375 18.574219 C 22.675781 18.574219 22.949219 19.113281 23.191406 19.589844 C 23.445312 20.085938 23.621094 20.390625 23.941406 20.390625 C 24.273438 20.390625 24.558594 19.953125 24.839844 19.53125 C 25.195312 18.992188 25.597656 18.382812 26.226562 18.589844 L 26.105469 18.960938 C 25.78125 18.855469 25.535156 19.1875 25.164062 19.746094 C 24.832031 20.257812 24.484375 20.78125 23.941406 20.78125 "/>
</g>
</svg>
