<?xml version="1.0" encoding="UTF-8"?>
<svg xmlns="http://www.w3.org/2000/svg" xmlns:xlink="http://www.w3.org/1999/xlink" width="375pt" height="374.999991pt" viewBox="0 0 375 374.999991" version="1.2">
<g id="surface1">
<path style=" stroke:none;fill-rule:nonzero;fill:rgb(100%,100%,100%);fill-opacity:1;" d="M 144.878906 155.214844 C 145.191406 153.691406 145.738281 152.101562 146.289062 150.414062 C 146.550781 149.566406 146.972656 148.753906 147.316406 147.886719 C 147.6875 147.027344 148.019531 146.140625 148.519531 145.3125 C 148.988281 144.464844 149.457031 143.59375 149.9375 142.726562 C 150.4375 141.859375 151.0625 141.070312 151.628906 140.230469 C 152.695312 138.492188 154.183594 137.039062 155.523438 135.480469 C 156.902344 133.957031 158.539062 132.679688 160.015625 131.285156 C 161.6875 130.121094 163.332031 128.980469 164.925781 127.878906 C 166.648438 126.980469 168.300781 126.113281 169.886719 125.285156 C 171.492188 124.523438 173.105469 124.015625 174.554688 123.441406 C 176.003906 122.863281 177.34375 122.367188 178.585938 122.113281 C 179.816406 121.800781 180.882812 121.527344 181.765625 121.304688 C 183.527344 120.855469 184.535156 120.59375 184.535156 120.59375 L 184.445312 120.125 C 184.445312 120.125 183.371094 120.035156 181.460938 120.035156 C 180.511719 120.046875 179.347656 120.035156 178.019531 120.125 C 177.351562 120.171875 176.628906 120.152344 175.894531 120.269531 C 175.152344 120.386719 174.398438 120.574219 173.585938 120.730469 C 171.980469 121.089844 170.179688 121.363281 168.378906 121.996094 C 166.601562 122.691406 164.683594 123.390625 162.773438 124.28125 C 160.953125 125.332031 159.015625 126.414062 157.167969 127.675781 C 155.476562 129.15625 153.636719 130.542969 152.039062 132.199219 C 150.574219 133.964844 148.996094 135.652344 147.84375 137.605469 C 146.492188 139.429688 145.621094 141.488281 144.75 143.417969 C 143.839844 145.351562 143.351562 147.371094 142.863281 149.222656 C 142.441406 151.105469 142.128906 152.890625 142.0625 154.570312 C 141.863281 156.21875 141.960938 157.757812 142.011719 159.097656 C 142.101562 160.441406 142.257812 161.59375 142.441406 162.550781 C 142.589844 163.484375 142.824219 164.226562 142.96875 164.726562 C 143.109375 165.222656 143.207031 165.476562 143.207031 165.476562 L 143.695312 165.445312 C 143.695312 165.445312 143.625 164.421875 143.753906 162.617188 C 143.871094 160.8125 144.136719 158.226562 144.878906 155.214844 Z M 202.839844 61.222656 C 211.226562 61.222656 218.015625 54.441406 218.015625 46.089844 C 218.015625 39.664062 214.003906 34.199219 208.347656 31.996094 L 202.839844 7.65625 L 196.511719 32.347656 C 191.296875 34.734375 187.664062 39.984375 187.664062 46.089844 C 187.664062 54.441406 194.457031 61.222656 202.839844 61.222656 Z M 180.738281 74.15625 C 182.109375 73.84375 183.488281 73.121094 184.71875 72.703125 C 188.183594 71.503906 191.792969 70.703125 195.433594 70.285156 C 200.609375 69.6875 205.863281 69.875 210.972656 70.859375 C 214.023438 71.445312 217.027344 72.324219 219.933594 73.445312 C 221.507812 74.058594 223.125 74.703125 224.609375 75.523438 C 226.695312 76.671875 230.097656 75.816406 230.832031 73.308594 C 232.027344 69.230469 225.765625 67.367188 222.917969 66.332031 C 218.9375 64.871094 214.808594 63.785156 210.617188 63.125 C 205.550781 62.324219 200.375 62.136719 195.265625 62.734375 C 192.421875 63.066406 189.59375 63.632812 186.851562 64.460938 C 185.367188 64.910156 183.90625 65.425781 182.480469 66.011719 C 180.199219 66.949219 173.3125 69.960938 176.933594 73.308594 C 178.097656 74.382812 179.40625 74.460938 180.738281 74.15625 Z M 237.144531 80.207031 C 230.128906 77.640625 222.867188 75.738281 215.492188 74.566406 C 206.558594 73.152344 197.441406 72.820312 188.449219 73.875 C 183.429688 74.449219 178.46875 75.464844 173.625 76.917969 C 171.023438 77.699219 168.449219 78.613281 165.925781 79.648438 C 161.914062 81.296875 149.78125 86.59375 156.160156 92.496094 C 158.203125 94.390625 160.523438 94.527344 162.863281 93.988281 C 165.277344 93.441406 167.714844 92.175781 169.878906 91.433594 C 175.984375 89.316406 182.332031 87.910156 188.75 87.179688 C 197.851562 86.125 207.105469 86.449219 216.097656 88.183594 C 221.488281 89.21875 226.773438 90.75 231.878906 92.742188 C 234.660156 93.824219 237.496094 94.964844 240.109375 96.398438 C 243.796875 98.429688 249.777344 96.917969 251.078125 92.496094 C 253.179688 85.308594 242.152344 82.039062 237.144531 80.207031 Z M 238.289062 100.925781 C 241.320312 102.175781 242.917969 102.984375 242.917969 102.984375 L 242.300781 104.28125 C 242.300781 104.28125 240.746094 103.597656 237.671875 102.535156 C 234.609375 101.511719 230.070312 100.066406 224.171875 98.835938 C 218.269531 97.597656 211.011719 96.496094 202.683594 96.417969 C 194.378906 96.359375 184.945312 97.394531 175.472656 100.847656 C 166.0625 104.328125 156.679688 110.261719 149.203125 118.925781 C 145.464844 123.207031 141.921875 127.996094 139.15625 133.285156 L 138.019531 135.34375 C 137.648438 136.035156 137.441406 136.679688 137.140625 137.34375 C 136.601562 138.6875 135.964844 139.957031 135.484375 141.359375 C 135.046875 142.777344 134.59375 144.210938 134.144531 145.644531 C 133.742188 147.085938 133.527344 148.589844 133.195312 150.0625 C 131.0625 161.984375 133.097656 174.8125 137.960938 186.949219 C 140.339844 193.042969 143.285156 199.035156 146.5625 204.925781 C 148.207031 207.863281 149.9375 210.78125 151.71875 213.675781 L 157.148438 222.621094 C 159.78125 226.769531 162.265625 231.160156 164.75 235.558594 C 169.144531 228.066406 170.113281 221.714844 170.113281 221.714844 C 182.890625 226.09375 175.894531 234.855469 175.894531 234.855469 C 174.691406 238.796875 172.5 242.015625 169.761719 244.679688 C 170.710938 246.5625 171.628906 248.453125 172.597656 250.316406 L 174.976562 255.039062 L 176.160156 257.410156 L 177.175781 259.867188 C 178.515625 263.144531 179.867188 266.414062 181.199219 269.664062 L 182.207031 272.101562 L 182.449219 272.707031 L 182.703125 273.417969 L 183.105469 274.617188 C 183.632812 276.226562 184.164062 277.835938 184.691406 279.4375 C 186.851562 286.265625 188.351562 293.007812 189.417969 299.894531 C 190.375 306.773438 190.601562 313.777344 189.984375 320.625 C 189.574219 324.039062 189.183594 327.480469 188.351562 330.691406 C 187.5 334.222656 186.421875 337.277344 185.101562 340.40625 C 182.507812 346.5625 178.949219 352.289062 174.28125 357.011719 C 171.960938 359.382812 169.222656 361.351562 166.402344 363.03125 C 163.519531 364.621094 160.464844 365.851562 157.363281 366.53125 L 156.785156 366.679688 L 156.648438 366.71875 C 156.679688 366.71875 155.855469 366.875 156.148438 366.816406 L 155.90625 366.84375 L 154.9375 366.960938 L 153.007812 367.207031 C 151.328125 367.234375 149.507812 367.371094 148.007812 367.148438 C 146.503906 366.933594 145.003906 366.804688 143.585938 366.355469 C 142.871094 366.160156 142.167969 365.976562 141.464844 365.78125 C 140.777344 365.539062 140.105469 365.246094 139.4375 364.972656 C 138.089844 364.472656 136.84375 363.761719 135.640625 363.03125 C 134.398438 362.386719 133.34375 361.429688 132.265625 360.601562 C 131.160156 359.800781 130.339844 358.667969 129.410156 357.742188 L 128.910156 357.1875 L 128.625 356.835938 L 128.578125 356.75 L 128.136719 356.066406 L 127.265625 354.71875 C 126.652344 353.507812 125.925781 352.152344 125.535156 350.972656 C 125.203125 349.792969 124.742188 348.652344 124.617188 347.5 C 124.417969 346.347656 124.203125 345.238281 124.203125 344.132812 C 124.136719 343.03125 124.105469 341.96875 124.214844 340.933594 C 124.253906 339.890625 124.371094 338.886719 124.578125 337.910156 C 124.734375 336.933594 124.929688 336 125.222656 335.101562 C 125.359375 334.652344 125.484375 334.214844 125.613281 333.773438 L 125.769531 333.277344 L 125.886719 332.992188 L 126.132812 332.4375 C 126.484375 331.675781 126.679688 331.03125 127.140625 330.234375 C 130.535156 323.832031 135.417969 321.230469 138.714844 320.15625 C 139.554688 319.921875 140.289062 319.71875 140.925781 319.53125 C 141.582031 319.445312 142.128906 319.375 142.570312 319.316406 C 143.441406 319.210938 143.890625 319.152344 143.890625 319.152344 L 144.117188 320.566406 C 144.117188 320.566406 143.722656 320.703125 142.949219 320.984375 C 142.570312 321.121094 142.101562 321.289062 141.542969 321.484375 C 141.023438 321.765625 140.417969 322.085938 139.742188 322.449219 C 138.421875 323.210938 136.933594 324.371094 135.476562 325.921875 C 134.144531 327.53125 132.6875 329.714844 131.972656 332.027344 C 131.730469 332.574219 131.582031 333.472656 131.375 334.214844 L 131.230469 334.796875 L 131.152344 335.089844 C 131.171875 335.042969 131.082031 335.324219 131.191406 334.984375 L 131.179688 335.050781 L 131.171875 335.1875 C 131.121094 335.550781 131.082031 335.921875 131.042969 336.292969 C 130.917969 337.03125 130.898438 337.792969 130.898438 338.574219 C 130.847656 339.34375 130.917969 340.125 130.984375 340.914062 C 131.003906 341.714844 131.152344 342.503906 131.316406 343.304688 C 131.414062 344.113281 131.707031 344.875 131.945312 345.65625 C 132.128906 346.464844 132.597656 347.148438 132.902344 347.910156 C 133.265625 348.621094 133.644531 349.0625 134.019531 349.714844 L 135.066406 350.933594 L 135.59375 351.546875 L 135.652344 351.625 C 135.867188 351.890625 135.4375 351.351562 135.503906 351.429688 L 135.632812 351.527344 L 135.886719 351.734375 C 136.589844 352.242188 137.121094 352.945312 137.941406 353.34375 C 138.714844 353.78125 139.398438 354.347656 140.289062 354.652344 C 141.121094 355.03125 141.953125 355.421875 142.890625 355.617188 C 143.34375 355.742188 143.792969 355.890625 144.253906 356.007812 L 145.679688 356.203125 C 146.621094 356.417969 147.617188 356.339844 148.585938 356.386719 C 149.585938 356.417969 150.300781 356.203125 151.167969 356.210938 L 153.039062 355.820312 L 153.988281 355.617188 L 154.222656 355.566406 C 154.59375 355.488281 153.859375 355.644531 153.96875 355.617188 L 154.054688 355.585938 L 154.417969 355.449219 C 162.253906 353.050781 168.632812 345.226562 172.15625 335.335938 C 173.039062 332.914062 173.773438 330.175781 174.242188 327.726562 C 174.878906 324.984375 175.054688 322.242188 175.316406 319.433594 C 175.542969 313.785156 175.492188 307.921875 174.574219 301.914062 C 173.773438 295.925781 172.441406 289.699219 170.847656 283.660156 C 170.386719 282.0625 169.925781 280.460938 169.464844 278.851562 L 169.113281 277.632812 L 168.96875 277.144531 L 168.761719 276.570312 L 167.960938 274.265625 C 166.882812 271.183594 165.796875 268.09375 164.710938 264.980469 L 163.898438 262.640625 L 162.902344 260.347656 L 160.886719 255.75 C 160.257812 254.375 159.671875 252.980469 159.066406 251.597656 C 148.578125 256.199219 137.355469 256.757812 137.355469 256.757812 C 145.574219 254.257812 151.765625 250.316406 156.414062 245.976562 C 153.402344 240.132812 150.5625 234.25 147.199219 228.359375 L 142.148438 219.296875 C 140.417969 216.214844 138.722656 213.089844 137.109375 209.921875 C 133.902344 203.589844 130.996094 197.0625 128.667969 190.324219 C 123.890625 176.949219 121.992188 162.121094 125.015625 148.425781 C 125.457031 146.734375 125.789062 145.027344 126.316406 143.390625 C 126.894531 141.761719 127.472656 140.152344 128.050781 138.53125 C 128.667969 136.933594 129.496094 135.371094 130.222656 133.808594 C 130.601562 133.050781 130.957031 132.199219 131.355469 131.527344 L 132.578125 129.507812 C 135.859375 123.800781 139.867188 118.796875 144.234375 114.320312 C 152.882812 105.246094 163.527344 99.238281 173.839844 96.007812 C 184.210938 92.800781 194.191406 92.234375 202.800781 92.722656 C 211.449219 93.21875 218.828125 94.742188 224.765625 96.371094 C 230.714844 97.96875 235.234375 99.695312 238.289062 100.925781 "/>
<path style=" stroke:none;fill-rule:nonzero;fill:rgb(100%,100%,100%);fill-opacity:1;" d="M 179.835938 180.800781 C 178.847656 180.996094 177.980469 180.089844 178.214844 179.113281 C 179.425781 174.101562 183.9375 161.320312 198.761719 157.390625 C 198.761719 157.390625 203.359375 156.441406 207.078125 154.140625 C 208.203125 153.449219 209.570312 154.617188 209.0625 155.839844 C 205.914062 163.457031 197.851562 177.164062 179.835938 180.800781 Z M 197.851562 155.476562 C 178.917969 160.628906 175.953125 177.074219 175.484375 182.539062 C 175.414062 183.445312 176.246094 184.1875 177.148438 184.019531 C 200.523438 179.613281 209.355469 161.027344 212.488281 150.882812 C 212.917969 149.488281 211.195312 148.519531 210.140625 149.527344 C 205.179688 154.226562 198.828125 155.320312 198.035156 155.4375 L 197.851562 155.476562 "/>
<path style=" stroke:none;fill-rule:nonzero;fill:rgb(100%,100%,100%);fill-opacity:1;" d="M 179.835938 180.800781 C 178.847656 180.996094 177.980469 180.089844 178.214844 179.113281 C 179.425781 174.101562 183.9375 161.320312 198.761719 157.390625 C 198.761719 157.390625 203.359375 156.441406 207.078125 154.140625 C 208.203125 153.449219 209.570312 154.617188 209.0625 155.839844 C 205.914062 163.457031 197.851562 177.164062 179.835938 180.800781 Z M 197.851562 155.476562 C 178.917969 160.628906 175.953125 177.074219 175.484375 182.539062 C 175.414062 183.445312 176.246094 184.1875 177.148438 184.019531 C 200.523438 179.613281 209.355469 161.027344 212.488281 150.882812 C 212.917969 149.488281 211.195312 148.519531 210.140625 149.527344 C 205.179688 154.226562 198.828125 155.320312 198.035156 155.4375 L 197.851562 155.476562 "/>
</g>
</svg>
